<svg version="1.1" id="Layer_1" xmlns="http://www.w3.org/2000/svg" xmlns:xlink="http://www.w3.org/1999/xlink" x="0px" y="0px"
	 width="100%" viewBox="0 0 512 512" enable-background="new 0 0 512 512" xml:space="preserve">
<path fill="#000000" opacity="1.000000" stroke="none" 
	d="
M513.000000,200.000000 
	C513.000000,304.641235 513.000000,408.782471 513.000000,512.961853 
	C342.400421,512.961853 171.800827,512.961853 1.100622,512.961853 
	C1.100622,342.442139 1.100622,171.884171 1.100622,1.163107 
	C171.666534,1.163107 342.333252,1.163107 513.000000,1.163107 
	C513.000000,67.199127 513.000000,133.349564 513.000000,200.000000 
M174.505997,185.971481 
	C176.455704,183.698257 178.405396,181.425034 181.002441,178.397064 
	C181.002441,183.602615 181.105835,187.425583 180.983887,191.241333 
	C180.543030,205.036667 181.074524,218.970917 179.239136,232.583069 
	C177.457840,245.793930 176.999680,258.600372 179.981781,271.580597 
	C180.342224,273.149506 179.652374,275.486084 178.599838,276.771118 
	C169.055191,288.423981 162.259232,301.341461 159.316742,316.221222 
	C154.597382,340.086243 157.061188,364.025146 159.368683,387.795197 
	C161.725769,412.076172 166.356766,436.088654 174.026703,459.357544 
	C174.657150,461.270203 177.070435,463.821381 178.802765,463.941040 
	C188.401505,464.604004 198.049835,464.807495 207.670578,464.621460 
	C209.152328,464.592834 211.511032,461.916107 211.859772,460.147675 
	C212.978378,454.475220 213.349579,448.654938 213.998947,442.890503 
	C214.657715,437.042786 215.304337,431.193665 215.983887,425.097473 
	C241.968063,431.912842 267.341278,432.074158 293.000519,425.205322 
	C293.381226,427.180634 293.802185,428.758728 293.975342,430.363556 
	C294.990631,439.772491 296.063507,449.177795 296.874146,458.605164 
	C297.256500,463.051178 299.867889,464.822205 303.756317,464.919006 
	C311.250580,465.105530 318.754974,465.086304 326.250793,464.936096 
	C331.360229,464.833710 334.568054,462.703613 336.230835,457.203949 
	C342.973877,434.900879 347.727173,412.161407 349.762177,389.036285 
	C351.478912,369.527618 351.796631,349.855865 351.863403,330.253326 
	C351.928986,311.008362 346.326782,293.257080 335.115997,277.371765 
	C333.984283,275.768127 333.872681,273.060211 334.099945,270.952332 
	C334.846191,264.029816 336.895081,257.124725 336.725372,250.255386 
	C336.472321,240.012100 334.218262,229.827103 333.796173,219.576935 
	C333.248169,206.267731 333.662354,192.918915 333.662354,179.084396 
	C339.297729,185.467911 344.976532,191.496445 350.197327,197.898483 
	C361.095642,211.262512 379.534790,211.758545 390.690491,198.768768 
	C399.616364,188.375458 399.155884,173.281815 389.139771,163.831436 
	C385.827271,160.706024 381.448517,158.710709 377.246521,155.998077 
	C390.145233,155.998077 402.736450,155.889420 415.325012,156.025375 
	C431.326782,156.198196 447.121338,154.493774 462.658691,150.785751 
	C471.827759,148.597565 479.828094,144.239395 484.540405,135.563095 
	C497.025269,112.575882 496.594360,88.228195 490.765076,63.807140 
	C487.304413,49.309204 469.953766,43.807529 457.130005,51.876904 
	C448.146729,57.529655 443.643768,65.972694 441.935455,75.955475 
	C440.242432,85.848907 439.273987,95.866341 437.987762,105.829384 
	C436.881195,104.738022 436.499512,103.557823 436.087097,102.388451 
	C433.992828,96.450424 431.756073,90.558723 429.818237,84.570221 
	C425.346100,70.749969 400.581116,69.859573 394.696045,82.534554 
	C392.151611,88.014557 389.726990,93.550179 387.055939,99.487297 
	C386.318665,98.490036 385.454926,97.382202 384.655975,96.229477 
	C382.403809,92.980103 380.534180,89.381439 377.871613,86.517410 
	C371.403595,79.559975 355.971161,80.067139 349.833313,87.174370 
	C343.093445,94.978668 341.448303,104.640640 339.987488,114.371735 
	C339.723663,116.129066 339.694244,118.187828 338.742981,119.531380 
	C333.579468,126.824333 319.156006,127.226959 313.594147,120.254051 
	C305.864319,110.563126 295.855316,104.054207 284.276031,100.374741 
	C270.183380,95.896637 255.767197,95.123253 240.987900,97.680855 
	C225.614563,100.341255 212.089722,106.363716 202.387222,118.458382 
	C197.333267,124.758385 191.820923,125.622482 185.024597,124.912216 
	C179.304901,124.314468 174.584595,120.057228 173.948669,115.818977 
	C173.089676,110.093872 172.294891,104.283394 170.595200,98.780540 
	C168.731888,92.748024 165.965698,86.721924 159.988922,83.651993 
	C149.173737,78.096825 135.053864,83.391441 130.014832,94.413269 
	C129.181580,96.235870 128.032791,97.914223 127.054657,99.616013 
	C124.193130,93.355171 122.243904,87.271103 118.803574,82.198273 
	C116.482803,78.776260 112.243797,74.851128 108.541733,74.495674 
	C95.505363,73.243958 89.707535,72.372948 82.869232,87.329979 
	C81.696182,89.895737 80.681015,92.550186 79.813171,95.234871 
	C78.673752,98.759666 77.752762,102.355080 76.737839,105.920120 
	C74.719872,95.837891 73.995415,85.745361 72.014870,75.905663 
	C68.644135,59.159176 59.183201,46.923725 38.897663,48.895115 
	C33.430923,49.426384 29.741066,51.811523 26.979443,55.837578 
	C25.054710,58.643562 23.995491,62.078705 22.753855,65.311241 
	C18.748196,75.739769 20.310482,86.667809 19.993265,97.429459 
	C19.664394,108.586517 21.710144,119.261116 26.313704,129.433640 
	C30.507072,138.699768 36.389114,145.876053 46.708622,149.205276 
	C60.955654,153.801575 75.629669,155.196564 90.340332,155.846054 
	C105.705254,156.524414 121.123390,155.997528 137.969849,155.997528 
	C135.172653,157.407608 133.785751,158.277008 132.283661,158.837936 
	C115.009750,165.288635 113.734207,187.475952 122.472481,197.997879 
	C133.583191,211.376511 152.836044,211.650009 163.709656,198.001465 
	C166.913696,193.979767 170.563004,190.312790 174.505997,185.971481 
z"/>
<path fill="#200502" opacity="1.000000" stroke="none" 
	d="
M174.257126,186.227371 
	C170.563004,190.312790 166.913696,193.979767 163.709656,198.001465 
	C152.836044,211.650009 133.583191,211.376511 122.472481,197.997879 
	C113.734207,187.475952 115.009750,165.288635 132.283661,158.837936 
	C133.785751,158.277008 135.172653,157.407608 137.969849,155.997528 
	C121.123390,155.997528 105.705254,156.524414 90.340332,155.846054 
	C75.629669,155.196564 60.955654,153.801575 46.708622,149.205276 
	C36.389114,145.876053 30.507072,138.699768 26.313704,129.433640 
	C21.710144,119.261116 19.664394,108.586517 19.993265,97.429459 
	C20.310482,86.667809 18.748196,75.739769 22.753855,65.311241 
	C23.995491,62.078705 25.054710,58.643562 26.979443,55.837578 
	C29.741066,51.811523 33.430923,49.426384 38.897663,48.895115 
	C59.183201,46.923725 68.644135,59.159176 72.014870,75.905663 
	C73.995415,85.745361 74.719872,95.837891 76.737839,105.920120 
	C77.752762,102.355080 78.673752,98.759666 79.813171,95.234871 
	C80.681015,92.550186 81.696182,89.895737 82.869232,87.329979 
	C89.707535,72.372948 95.505363,73.243958 108.541733,74.495674 
	C112.243797,74.851128 116.482803,78.776260 118.803574,82.198273 
	C122.243904,87.271103 124.193130,93.355171 127.054657,99.616013 
	C128.032791,97.914223 129.181580,96.235870 130.014832,94.413269 
	C135.053864,83.391441 149.173737,78.096825 159.988922,83.651993 
	C165.965698,86.721924 168.731888,92.748024 170.595200,98.780540 
	C172.294891,104.283394 173.089676,110.093872 173.948669,115.818977 
	C174.584595,120.057228 179.304901,124.314468 185.024597,124.912216 
	C191.820923,125.622482 197.333267,124.758385 202.387222,118.458382 
	C212.089722,106.363716 225.614563,100.341255 240.987900,97.680855 
	C255.767197,95.123253 270.183380,95.896637 284.276031,100.374741 
	C295.855316,104.054207 305.864319,110.563126 313.594147,120.254051 
	C319.156006,127.226959 333.579468,126.824333 338.742981,119.531380 
	C339.694244,118.187828 339.723663,116.129066 339.987488,114.371735 
	C341.448303,104.640640 343.093445,94.978668 349.833313,87.174370 
	C355.971161,80.067139 371.403595,79.559975 377.871613,86.517410 
	C380.534180,89.381439 382.403809,92.980103 384.655975,96.229477 
	C385.454926,97.382202 386.318665,98.490036 387.055939,99.487297 
	C389.726990,93.550179 392.151611,88.014557 394.696045,82.534554 
	C400.581116,69.859573 425.346100,70.749969 429.818237,84.570221 
	C431.756073,90.558723 433.992828,96.450424 436.087097,102.388451 
	C436.499512,103.557823 436.881195,104.738022 437.987762,105.829384 
	C439.273987,95.866341 440.242432,85.848907 441.935455,75.955475 
	C443.643768,65.972694 448.146729,57.529655 457.130005,51.876904 
	C469.953766,43.807529 487.304413,49.309204 490.765076,63.807140 
	C496.594360,88.228195 497.025269,112.575882 484.540405,135.563095 
	C479.828094,144.239395 471.827759,148.597565 462.658691,150.785751 
	C447.121338,154.493774 431.326782,156.198196 415.325012,156.025375 
	C402.736450,155.889420 390.145233,155.998077 377.246521,155.998077 
	C381.448517,158.710709 385.827271,160.706024 389.139771,163.831436 
	C399.155884,173.281815 399.616364,188.375458 390.690491,198.768768 
	C379.534790,211.758545 361.095642,211.262512 350.197327,197.898483 
	C344.976532,191.496445 339.297729,185.467911 333.662354,179.084396 
	C333.662354,192.918915 333.248169,206.267731 333.796173,219.576935 
	C334.218262,229.827103 336.472321,240.012100 336.725372,250.255386 
	C336.895081,257.124725 334.846191,264.029816 334.099945,270.952332 
	C333.872681,273.060211 333.984283,275.768127 335.115997,277.371765 
	C346.326782,293.257080 351.928986,311.008362 351.863403,330.253326 
	C351.796631,349.855865 351.478912,369.527618 349.762177,389.036285 
	C347.727173,412.161407 342.973877,434.900879 336.230835,457.203949 
	C334.568054,462.703613 331.360229,464.833710 326.250793,464.936096 
	C318.754974,465.086304 311.250580,465.105530 303.756317,464.919006 
	C299.867889,464.822205 297.256500,463.051178 296.874146,458.605164 
	C296.063507,449.177795 294.990631,439.772491 293.975342,430.363556 
	C293.802185,428.758728 293.381226,427.180634 293.000519,425.205322 
	C267.341278,432.074158 241.968063,431.912842 215.983887,425.097473 
	C215.304337,431.193665 214.657715,437.042786 213.998947,442.890503 
	C213.349579,448.654938 212.978378,454.475220 211.859772,460.147675 
	C211.511032,461.916107 209.152328,464.592834 207.670578,464.621460 
	C198.049835,464.807495 188.401505,464.604004 178.802765,463.941040 
	C177.070435,463.821381 174.657150,461.270203 174.026703,459.357544 
	C166.356766,436.088654 161.725769,412.076172 159.368683,387.795197 
	C157.061188,364.025146 154.597382,340.086243 159.316742,316.221222 
	C162.259232,301.341461 169.055191,288.423981 178.599838,276.771118 
	C179.652374,275.486084 180.342224,273.149506 179.981781,271.580597 
	C176.999680,258.600372 177.457840,245.793930 179.239136,232.583069 
	C181.074524,218.970917 180.543030,205.036667 180.983887,191.241333 
	C181.105835,187.425583 181.002441,183.602615 181.002441,178.397064 
	C178.405396,181.425034 176.455704,183.698257 174.257126,186.227371 
M324.106842,224.321503 
	C323.995453,219.159485 324.026337,213.989746 323.746063,208.836914 
	C322.906128,193.395111 322.961945,177.816818 320.814941,162.552460 
	C316.583069,132.465332 298.580750,113.049889 271.293030,107.437363 
	C242.336197,101.481522 205.341019,112.270424 194.959747,154.442749 
	C192.709930,163.582291 191.703415,173.114624 191.003677,182.531372 
	C189.438843,203.590302 188.615417,224.703568 187.134262,245.769699 
	C185.863647,263.841156 193.061523,287.516449 214.256943,295.694000 
	C243.172592,306.850159 271.654236,307.054596 300.351776,295.332825 
	C310.144531,291.332855 317.099854,284.655731 321.514008,275.212708 
	C326.284576,265.007141 327.981323,254.307648 326.397949,243.101288 
	C325.560089,237.171066 324.900879,231.215591 324.106842,224.321503 
M208.145142,409.637482 
	C211.017776,395.460846 213.748611,381.252930 216.867691,367.130707 
	C217.602036,363.805725 219.336090,360.564362 221.237396,357.700958 
	C222.010696,356.536316 224.456360,356.482086 226.141083,355.922607 
	C226.298447,357.654175 226.943604,359.523590 226.502045,361.085876 
	C225.789383,363.607513 223.869003,365.819550 223.317337,368.349609 
	C220.377823,381.830475 217.743835,395.377594 214.913300,408.882782 
	C214.202484,412.274231 215.939713,413.556488 218.739944,414.688354 
	C236.500198,421.867249 254.956024,421.355621 273.403870,419.257385 
	C279.748077,418.535797 285.930664,416.011444 292.033020,413.871307 
	C293.231018,413.451111 294.533905,410.929047 294.394440,409.513763 
	C293.807800,403.559937 293.107452,397.555939 291.678558,391.760162 
	C289.218475,381.781952 286.106079,371.966156 283.458923,362.031128 
	C282.950562,360.123077 283.322968,357.980316 283.289001,355.945831 
	C285.250427,356.945129 288.252045,357.460541 288.983154,359.032196 
	C291.421448,364.273834 293.843689,369.753571 294.837219,375.394714 
	C298.241058,394.721375 301.187744,414.133820 303.940186,433.565765 
	C304.543823,437.827515 305.595490,439.834534 310.274017,439.448486 
	C315.238708,439.038818 320.289703,439.039612 325.254089,439.451202 
	C329.691620,439.819122 331.191833,437.992218 332.184540,433.895630 
	C338.644135,407.238495 342.136139,380.162384 342.638184,352.813202 
	C342.881073,339.583710 341.712372,326.197205 339.742950,313.098297 
	C338.062988,301.924438 332.898285,291.761475 325.284668,282.377899 
	C319.615936,290.960724 312.790955,297.236053 303.699341,301.034668 
	C272.591309,314.032227 241.569534,314.085693 210.462357,301.081177 
	C202.379608,297.702118 195.843460,292.559967 190.856491,285.389160 
	C190.137466,284.355286 189.310684,283.396332 188.236755,282.022827 
	C175.455673,296.571625 167.741547,312.961395 167.109512,331.929565 
	C166.616959,346.711945 166.551712,361.670685 168.248749,376.324982 
	C170.636688,396.945557 174.838043,417.355743 178.244415,437.859161 
	C178.718842,440.714874 179.986618,442.126587 183.213959,441.975098 
	C188.866501,441.709808 194.545670,441.753693 200.203308,441.956909 
	C203.351181,442.069977 204.630142,440.986481 204.939941,437.806244 
	C205.827408,428.696106 206.993851,419.613129 208.145142,409.637482 
M450.067780,84.784973 
	C449.342987,91.574440 448.930695,98.417244 447.784332,105.134773 
	C447.010803,109.667381 445.794159,114.326050 443.717957,118.387573 
	C440.571472,124.542816 434.175293,124.320831 430.954254,118.226395 
	C429.571747,115.610619 428.818146,112.656219 427.838959,109.834785 
	C425.553101,103.248123 423.558990,96.545441 420.945831,90.092575 
	C419.322693,86.084381 416.196289,83.229073 411.423981,83.142654 
	C406.662933,83.056435 404.005219,86.313141 402.441650,89.989594 
	C399.653503,96.545326 397.461060,103.360527 395.162720,110.115944 
	C393.986084,113.574387 393.445984,117.282242 391.984314,120.597946 
	C391.168243,122.449127 388.807617,125.149170 387.581329,124.936707 
	C385.667969,124.605217 383.601562,122.409065 382.557343,120.483765 
	C381.158417,117.904457 380.871277,114.749397 379.752197,111.985085 
	C377.702057,106.920685 376.002319,101.564041 373.058380,97.044548 
	C367.652374,88.745277 359.364960,89.018021 355.161560,97.897385 
	C352.160950,104.236015 350.412811,111.360634 349.250336,118.325554 
	C347.916199,126.318954 345.325867,130.684647 337.427246,132.889496 
	C332.773590,134.188538 327.876251,134.614746 321.484467,135.707809 
	C330.167999,139.109207 337.365417,143.905518 344.896118,144.503220 
	C366.458130,146.214600 388.169312,147.015244 409.794708,146.634430 
	C425.358185,146.360352 440.933136,144.010864 456.399933,141.849838 
	C468.385010,140.175262 476.101562,132.488098 479.846161,121.214539 
	C481.983643,114.779350 483.789886,108.086967 484.554504,101.374748 
	C485.978027,88.878502 485.691986,76.354424 480.006409,64.685776 
	C476.554108,57.600601 471.729980,55.850708 464.871857,59.761456 
	C461.404572,61.738609 457.947235,64.759933 456.026428,68.175720 
	C453.313721,72.999832 452.028503,78.626640 450.067780,84.784973 
M29.819151,104.609665 
	C32.841610,127.951492 41.364197,138.481506 60.739651,142.738815 
	C63.174911,143.273911 65.645523,143.674591 68.116478,144.016724 
	C97.656151,148.106918 127.265015,146.740768 156.920547,145.631607 
	C169.439362,145.163376 180.543625,141.762268 190.708160,135.574020 
	C185.539825,134.522781 180.034531,133.954239 174.923553,132.222153 
	C168.706635,130.115250 165.415604,125.828552 164.618027,118.549797 
	C163.805344,111.133133 161.394058,103.572548 158.125671,96.829704 
	C154.529465,89.410500 146.957153,89.072174 141.994278,95.705933 
	C138.976089,99.740265 137.095413,104.698906 135.117950,109.415977 
	C133.452789,113.388046 132.641022,117.721954 130.924561,121.666412 
	C130.262512,123.187820 128.158859,124.978592 126.689888,124.998314 
	C125.239899,125.017769 123.238503,123.240196 122.418228,121.738091 
	C121.169334,119.451141 120.792725,116.700722 119.935364,114.184723 
	C117.153343,106.020592 115.035912,97.530029 111.324585,89.808235 
	C106.839706,80.476997 97.896080,80.643692 93.185280,89.920670 
	C90.429886,95.346893 88.999619,101.444351 86.953079,107.232727 
	C85.570518,111.143120 84.583664,115.271622 82.647804,118.889481 
	C79.887314,124.048485 74.162048,124.298973 70.955109,119.405922 
	C69.092865,116.564575 67.709244,113.124947 67.137573,109.779022 
	C65.765831,101.750351 64.911331,93.627922 64.015091,85.524864 
	C63.072186,76.999863 60.348835,69.237770 54.155090,63.142532 
	C45.510929,54.635841 36.877453,56.479996 32.612965,67.758926 
	C28.202219,79.424690 28.130310,91.533966 29.819151,104.609665 
M180.883926,162.373764 
	C186.009079,157.091721 190.358078,151.411636 190.727890,143.157227 
	C172.298843,151.712387 154.182907,160.070618 136.117554,168.536713 
	C129.877792,171.460907 126.194107,177.165741 126.941528,183.202744 
	C127.827835,190.361572 133.069931,194.581116 138.829666,197.585815 
	C143.756943,200.156204 150.137802,197.470688 154.745026,192.202194 
	C163.292450,182.427948 171.852371,172.664627 180.883926,162.373764 
M328.796021,145.752411 
	C327.043518,144.951813 325.290985,144.151230 323.538483,143.350647 
	C323.085480,143.678574 322.632507,144.006485 322.179504,144.334396 
	C324.564911,148.884140 326.269196,153.994019 329.463623,157.878403 
	C338.973114,169.441757 349.081604,180.511856 358.928741,191.798492 
	C363.842621,197.430710 370.067169,200.196320 375.148804,197.589554 
	C380.932281,194.622711 386.162476,190.377762 387.048798,183.228699 
	C387.836273,176.876633 383.943939,171.313599 377.020477,168.089493 
	C361.185974,160.715683 345.329010,153.390137 328.796021,145.752411 
M404.496094,155.002441 
	C409.445831,155.002441 414.395569,155.002441 419.345306,155.002441 
	C419.334503,154.779465 419.323730,154.556473 419.312958,154.333496 
	C404.768066,154.333496 390.223175,154.333496 375.678284,154.333496 
	C375.679016,154.556473 375.679749,154.779465 375.680481,155.002441 
	C384.952820,155.002441 394.225189,155.002441 404.496094,155.002441 
M130.969254,155.002335 
	C132.102036,154.911835 133.234818,154.821335 134.367599,154.730835 
	C134.343643,154.607025 134.319687,154.483200 134.295731,154.359375 
	C122.110306,154.359375 109.924881,154.359375 97.739456,154.359375 
	C97.741417,154.573730 97.743385,154.788086 97.745346,155.002441 
	C108.529144,155.002441 119.312943,155.002441 130.969254,155.002335 
z"/>
<path fill="#8A5F58" opacity="1.000000" stroke="none" 
	d="
M324.133911,224.796509 
	C324.900879,231.215591 325.560089,237.171066 326.397949,243.101288 
	C327.981323,254.307648 326.284576,265.007141 321.514008,275.212708 
	C317.099854,284.655731 310.144531,291.332855 300.351776,295.332825 
	C271.654236,307.054596 243.172592,306.850159 214.256943,295.694000 
	C193.061523,287.516449 185.863647,263.841156 187.134262,245.769699 
	C188.615417,224.703568 189.438843,203.590302 191.003677,182.531372 
	C191.703415,173.114624 192.709930,163.582291 194.959747,154.442749 
	C205.341019,112.270424 242.336197,101.481522 271.293030,107.437363 
	C298.580750,113.049889 316.583069,132.465332 320.814941,162.552460 
	C322.961945,177.816818 322.906128,193.395111 323.746063,208.836914 
	C324.026337,213.989746 323.995453,219.159485 324.133911,224.796509 
M306.122192,194.069962 
	C299.336395,192.227066 293.755615,194.074905 290.408356,199.272934 
	C287.236481,204.198593 287.682861,210.627075 291.619232,214.978180 
	C295.305756,219.053101 299.947754,220.450409 305.176514,218.872421 
	C310.610779,217.232376 313.870148,213.356430 314.455231,207.694992 
	C315.088654,201.565308 312.223328,197.182373 306.122192,194.069962 
M202.139221,214.344543 
	C207.822586,218.927231 213.511063,219.664688 218.595947,216.477997 
	C223.384567,213.477020 225.879013,207.539154 224.428925,202.259247 
	C222.924637,196.782013 219.285797,193.320786 213.732010,192.366211 
	C208.333603,191.438385 203.836838,193.541718 200.831009,198.059738 
	C197.293442,203.377045 197.868301,208.722733 202.139221,214.344543 
M242.102875,274.389038 
	C240.488632,273.261719 239.008667,271.817200 237.235031,271.066437 
	C231.864960,268.793274 227.119629,272.097656 227.091980,277.927795 
	C227.064941,283.629486 232.123688,290.658813 237.532669,292.435516 
	C242.449799,294.050659 247.291092,291.238403 246.820450,286.172211 
	C246.462936,282.323669 244.090317,278.662292 242.102875,274.389038 
M289.087677,278.428986 
	C288.395569,270.700043 282.750366,267.603607 276.855896,272.400208 
	C273.595306,275.053528 271.013214,279.239288 269.649445,283.252228 
	C268.881287,285.512634 270.429596,289.781799 272.380554,291.374176 
	C274.066895,292.750549 278.194672,292.495789 280.539368,291.423340 
	C285.474457,289.166107 288.147766,284.672791 289.087677,278.428986 
z"/>
<path fill="#895F58" opacity="1.000000" stroke="none" 
	d="
M208.097870,410.078491 
	C206.993851,419.613129 205.827408,428.696106 204.939941,437.806244 
	C204.630142,440.986481 203.351181,442.069977 200.203308,441.956909 
	C194.545670,441.753693 188.866501,441.709808 183.213959,441.975098 
	C179.986618,442.126587 178.718842,440.714874 178.244415,437.859161 
	C174.838043,417.355743 170.636688,396.945557 168.248749,376.324982 
	C166.551712,361.670685 166.616959,346.711945 167.109512,331.929565 
	C167.741547,312.961395 175.455673,296.571625 188.236755,282.022827 
	C189.310684,283.396332 190.137466,284.355286 190.856491,285.389160 
	C195.843460,292.559967 202.379608,297.702118 210.462357,301.081177 
	C241.569534,314.085693 272.591309,314.032227 303.699341,301.034668 
	C312.790955,297.236053 319.615936,290.960724 325.284668,282.377899 
	C332.898285,291.761475 338.062988,301.924438 339.742950,313.098297 
	C341.712372,326.197205 342.881073,339.583710 342.638184,352.813202 
	C342.136139,380.162384 338.644135,407.238495 332.184540,433.895630 
	C331.191833,437.992218 329.691620,439.819122 325.254089,439.451202 
	C320.289703,439.039612 315.238708,439.038818 310.274017,439.448486 
	C305.595490,439.834534 304.543823,437.827515 303.940186,433.565765 
	C301.187744,414.133820 298.241058,394.721375 294.837219,375.394714 
	C293.843689,369.753571 291.421448,364.273834 288.983154,359.032196 
	C288.252045,357.460541 285.250427,356.945129 283.289001,355.945831 
	C283.322968,357.980316 282.950562,360.123077 283.458923,362.031128 
	C286.106079,371.966156 289.218475,381.781952 291.678558,391.760162 
	C293.107452,397.555939 293.807800,403.559937 294.394440,409.513763 
	C294.533905,410.929047 293.231018,413.451111 292.033020,413.871307 
	C285.930664,416.011444 279.748077,418.535797 273.403870,419.257385 
	C254.956024,421.355621 236.500198,421.867249 218.739944,414.688354 
	C215.939713,413.556488 214.202484,412.274231 214.913300,408.882782 
	C217.743835,395.377594 220.377823,381.830475 223.317337,368.349609 
	C223.869003,365.819550 225.789383,363.607513 226.502045,361.085876 
	C226.943604,359.523590 226.298447,357.654175 226.141083,355.922607 
	C224.456360,356.482086 222.010696,356.536316 221.237396,357.700958 
	C219.336090,360.564362 217.602036,363.805725 216.867691,367.130707 
	C213.748611,381.252930 211.017776,395.460846 208.097870,410.078491 
z"/>
<path fill="#FDE989" opacity="1.000000" stroke="none" 
	d="
M450.100403,84.347641 
	C452.028503,78.626640 453.313721,72.999832 456.026428,68.175720 
	C457.947235,64.759933 461.404572,61.738609 464.871857,59.761456 
	C471.729980,55.850708 476.554108,57.600601 480.006409,64.685776 
	C485.691986,76.354424 485.978027,88.878502 484.554504,101.374748 
	C483.789886,108.086967 481.983643,114.779350 479.846161,121.214539 
	C476.101562,132.488098 468.385010,140.175262 456.399933,141.849838 
	C440.933136,144.010864 425.358185,146.360352 409.794708,146.634430 
	C388.169312,147.015244 366.458130,146.214600 344.896118,144.503220 
	C337.365417,143.905518 330.167999,139.109207 321.484467,135.707809 
	C327.876251,134.614746 332.773590,134.188538 337.427246,132.889496 
	C345.325867,130.684647 347.916199,126.318954 349.250336,118.325554 
	C350.412811,111.360634 352.160950,104.236015 355.161560,97.897385 
	C359.364960,89.018021 367.652374,88.745277 373.058380,97.044548 
	C376.002319,101.564041 377.702057,106.920685 379.752197,111.985085 
	C380.871277,114.749397 381.158417,117.904457 382.557343,120.483765 
	C383.601562,122.409065 385.667969,124.605217 387.581329,124.936707 
	C388.807617,125.149170 391.168243,122.449127 391.984314,120.597946 
	C393.445984,117.282242 393.986084,113.574387 395.162720,110.115944 
	C397.461060,103.360527 399.653503,96.545326 402.441650,89.989594 
	C404.005219,86.313141 406.662933,83.056435 411.423981,83.142654 
	C416.196289,83.229073 419.322693,86.084381 420.945831,90.092575 
	C423.558990,96.545441 425.553101,103.248123 427.838959,109.834785 
	C428.818146,112.656219 429.571747,115.610619 430.954254,118.226395 
	C434.175293,124.320831 440.571472,124.542816 443.717957,118.387573 
	C445.794159,114.326050 447.010803,109.667381 447.784332,105.134773 
	C448.930695,98.417244 449.342987,91.574440 450.100403,84.347641 
z"/>
<path fill="#FDE989" opacity="1.000000" stroke="none" 
	d="
M29.750626,104.170898 
	C28.130310,91.533966 28.202219,79.424690 32.612965,67.758926 
	C36.877453,56.479996 45.510929,54.635841 54.155090,63.142532 
	C60.348835,69.237770 63.072186,76.999863 64.015091,85.524864 
	C64.911331,93.627922 65.765831,101.750351 67.137573,109.779022 
	C67.709244,113.124947 69.092865,116.564575 70.955109,119.405922 
	C74.162048,124.298973 79.887314,124.048485 82.647804,118.889481 
	C84.583664,115.271622 85.570518,111.143120 86.953079,107.232727 
	C88.999619,101.444351 90.429886,95.346893 93.185280,89.920670 
	C97.896080,80.643692 106.839706,80.476997 111.324585,89.808235 
	C115.035912,97.530029 117.153343,106.020592 119.935364,114.184723 
	C120.792725,116.700722 121.169334,119.451141 122.418228,121.738091 
	C123.238503,123.240196 125.239899,125.017769 126.689888,124.998314 
	C128.158859,124.978592 130.262512,123.187820 130.924561,121.666412 
	C132.641022,117.721954 133.452789,113.388046 135.117950,109.415977 
	C137.095413,104.698906 138.976089,99.740265 141.994278,95.705933 
	C146.957153,89.072174 154.529465,89.410500 158.125671,96.829704 
	C161.394058,103.572548 163.805344,111.133133 164.618027,118.549797 
	C165.415604,125.828552 168.706635,130.115250 174.923553,132.222153 
	C180.034531,133.954239 185.539825,134.522781 190.708160,135.574020 
	C180.543625,141.762268 169.439362,145.163376 156.920547,145.631607 
	C127.265015,146.740768 97.656151,148.106918 68.116478,144.016724 
	C65.645523,143.674591 63.174911,143.273911 60.739651,142.738815 
	C41.364197,138.481506 32.841610,127.951492 29.750626,104.170898 
z"/>
<path fill="#895E57" opacity="1.000000" stroke="none" 
	d="
M180.645508,162.635254 
	C171.852371,172.664627 163.292450,182.427948 154.745026,192.202194 
	C150.137802,197.470688 143.756943,200.156204 138.829666,197.585815 
	C133.069931,194.581116 127.827835,190.361572 126.941528,183.202744 
	C126.194107,177.165741 129.877792,171.460907 136.117554,168.536713 
	C154.182907,160.070618 172.298843,151.712387 190.727890,143.157227 
	C190.358078,151.411636 186.009079,157.091721 180.645508,162.635254 
z"/>
<path fill="#895E57" opacity="1.000000" stroke="none" 
	d="
M329.138611,145.898712 
	C345.329010,153.390137 361.185974,160.715683 377.020477,168.089493 
	C383.943939,171.313599 387.836273,176.876633 387.048798,183.228699 
	C386.162476,190.377762 380.932281,194.622711 375.148804,197.589554 
	C370.067169,200.196320 363.842621,197.430710 358.928741,191.798492 
	C349.081604,180.511856 338.973114,169.441757 329.463623,157.878403 
	C326.269196,153.994019 324.564911,148.884140 322.179504,144.334396 
	C322.632507,144.006485 323.085480,143.678574 323.538483,143.350647 
	C325.290985,144.151230 327.043518,144.951813 329.138611,145.898712 
z"/>
<path fill="#000000" opacity="1.000000" stroke="none" 
	d="
M403.996826,155.002441 
	C394.225189,155.002441 384.952820,155.002441 375.680481,155.002441 
	C375.679749,154.779465 375.679016,154.556473 375.678284,154.333496 
	C390.223175,154.333496 404.768066,154.333496 419.312958,154.333496 
	C419.323730,154.556473 419.334503,154.779465 419.345306,155.002441 
	C414.395569,155.002441 409.445831,155.002441 403.996826,155.002441 
z"/>
<path fill="#000000" opacity="1.000000" stroke="none" 
	d="
M130.532990,155.002380 
	C119.312943,155.002441 108.529144,155.002441 97.745346,155.002441 
	C97.743385,154.788086 97.741417,154.573730 97.739456,154.359375 
	C109.924881,154.359375 122.110306,154.359375 134.295731,154.359375 
	C134.319687,154.483200 134.343643,154.607025 134.367599,154.730835 
	C133.234818,154.821335 132.102036,154.911835 130.532990,155.002380 
z"/>
<path fill="#200502" opacity="1.000000" stroke="none" 
	d="
M306.479797,194.217102 
	C312.223328,197.182373 315.088654,201.565308 314.455231,207.694992 
	C313.870148,213.356430 310.610779,217.232376 305.176514,218.872421 
	C299.947754,220.450409 295.305756,219.053101 291.619232,214.978180 
	C287.682861,210.627075 287.236481,204.198593 290.408356,199.272934 
	C293.755615,194.074905 299.336395,192.227066 306.479797,194.217102 
z"/>
<path fill="#200502" opacity="1.000000" stroke="none" 
	d="
M201.895905,214.062683 
	C197.868301,208.722733 197.293442,203.377045 200.831009,198.059738 
	C203.836838,193.541718 208.333603,191.438385 213.732010,192.366211 
	C219.285797,193.320786 222.924637,196.782013 224.428925,202.259247 
	C225.879013,207.539154 223.384567,213.477020 218.595947,216.477997 
	C213.511063,219.664688 207.822586,218.927231 201.895905,214.062683 
z"/>
<path fill="#200502" opacity="1.000000" stroke="none" 
	d="
M242.358597,274.653320 
	C244.090317,278.662292 246.462936,282.323669 246.820450,286.172211 
	C247.291092,291.238403 242.449799,294.050659 237.532669,292.435516 
	C232.123688,290.658813 227.064941,283.629486 227.091980,277.927795 
	C227.119629,272.097656 231.864960,268.793274 237.235031,271.066437 
	C239.008667,271.817200 240.488632,273.261719 242.358597,274.653320 
z"/>
<path fill="#200502" opacity="1.000000" stroke="none" 
	d="
M289.064606,278.840271 
	C288.147766,284.672791 285.474457,289.166107 280.539368,291.423340 
	C278.194672,292.495789 274.066895,292.750549 272.380554,291.374176 
	C270.429596,289.781799 268.881287,285.512634 269.649445,283.252228 
	C271.013214,279.239288 273.595306,275.053528 276.855896,272.400208 
	C282.750366,267.603607 288.395569,270.700043 289.064606,278.840271 
z"/>
</svg>